<mxfile host="app.diagrams.net" modified="2021-04-27T16:14:40.529Z" agent="5.0 (Windows)" etag="OWjMHzSl1VD1MUcIYr7x" version="14.4.9" type="github">
  <diagram name="Page-1" id="10a91c8b-09ff-31b1-d368-03940ed4cc9e">
    <mxGraphModel dx="1179" dy="804" grid="1" gridSize="10" guides="1" tooltips="1" connect="1" arrows="1" fold="1" page="1" pageScale="1" pageWidth="1100" pageHeight="850" background="#ffffff" math="0" shadow="0">
      <root>
        <mxCell id="0" />
        <mxCell id="1" parent="0" />
        <mxCell id="62893188c0fa7362-1" value="&lt;ul&gt;&lt;li&gt;calculate CC tables&lt;/li&gt;&lt;li&gt;termination criterion not met&lt;/li&gt;&lt;li&gt;calculate best feature and feature value to split dataset at&lt;/li&gt;&lt;li&gt;left: dataset.feature is &amp;lt;= value&lt;/li&gt;&lt;li&gt;right: dataset.feature &amp;gt; value&lt;br&gt;&lt;/li&gt;&lt;/ul&gt;" style="whiteSpace=wrap;html=1;rounded=1;shadow=1;labelBackgroundColor=none;strokeWidth=1;fontFamily=Verdana;fontSize=12;align=left;" parent="1" vertex="1">
          <mxGeometry x="370" y="20" width="430" height="90" as="geometry" />
        </mxCell>
        <mxCell id="62893188c0fa7362-2" value="&lt;ul&gt;&lt;li&gt;calculate CC tables&lt;/li&gt;&lt;li&gt;termination criterion not met&lt;/li&gt;&lt;li&gt;calculate best feature and feature value to split dataset at&lt;/li&gt;&lt;li&gt;left: dataset.feature is &amp;lt;= value&lt;/li&gt;&lt;li&gt;right: dataset.feature &amp;gt; value&lt;br&gt;&lt;/li&gt;&lt;/ul&gt;" style="whiteSpace=wrap;html=1;rounded=1;shadow=1;labelBackgroundColor=none;strokeWidth=1;fontFamily=Verdana;fontSize=12;align=left;" parent="1" vertex="1">
          <mxGeometry x="150" y="160" width="430" height="90" as="geometry" />
        </mxCell>
        <mxCell id="62893188c0fa7362-3" value="&lt;ul&gt;&lt;li&gt;calculate CC tables&lt;/li&gt;&lt;li&gt;termination criterion not met&lt;/li&gt;&lt;li&gt;calculate best feature and feature value to split dataset at&lt;/li&gt;&lt;li&gt;left: dataset.feature is &amp;lt;= value&lt;/li&gt;&lt;li&gt;right: dataset.feature &amp;gt; value&lt;br&gt;&lt;/li&gt;&lt;/ul&gt;" style="whiteSpace=wrap;html=1;rounded=1;shadow=1;labelBackgroundColor=none;strokeWidth=1;fontFamily=Verdana;fontSize=12;align=left;" parent="1" vertex="1">
          <mxGeometry x="670" y="160" width="420" height="90" as="geometry" />
        </mxCell>
        <mxCell id="62893188c0fa7362-4" value="No" style="rounded=0;html=1;labelBackgroundColor=none;startArrow=none;startFill=0;startSize=5;endArrow=none;endFill=0;endSize=5;jettySize=auto;orthogonalLoop=1;strokeWidth=1;fontFamily=Verdana;fontSize=12" parent="1" source="62893188c0fa7362-1" target="62893188c0fa7362-3" edge="1">
          <mxGeometry x="0.2753" y="13" relative="1" as="geometry">
            <mxPoint as="offset" />
          </mxGeometry>
        </mxCell>
        <mxCell id="62893188c0fa7362-5" value="Yes" style="rounded=0;html=1;labelBackgroundColor=none;startArrow=none;startFill=0;startSize=5;endArrow=none;endFill=0;endSize=5;jettySize=auto;orthogonalLoop=1;strokeWidth=1;fontFamily=Verdana;fontSize=12" parent="1" source="62893188c0fa7362-1" target="62893188c0fa7362-2" edge="1">
          <mxGeometry x="0.3012" y="-15" relative="1" as="geometry">
            <mxPoint as="offset" />
          </mxGeometry>
        </mxCell>
        <mxCell id="62893188c0fa7362-10" value="&lt;ul&gt;&lt;li&gt;calculate CC tables&lt;/li&gt;&lt;li&gt;termination criterion met&lt;/li&gt;&lt;li&gt;node is a leaf&lt;/li&gt;&lt;li&gt;return predicted class&lt;br&gt;&lt;/li&gt;&lt;/ul&gt;" style="whiteSpace=wrap;html=1;rounded=0;shadow=1;labelBackgroundColor=none;strokeWidth=2;fontFamily=Verdana;fontSize=12;align=left;" parent="1" vertex="1">
          <mxGeometry x="650" y="320" width="210" height="70" as="geometry" />
        </mxCell>
        <mxCell id="62893188c0fa7362-12" value="..." style="whiteSpace=wrap;html=1;rounded=1;shadow=1;labelBackgroundColor=none;strokeWidth=1;fontFamily=Verdana;fontSize=12;align=center;" parent="1" vertex="1">
          <mxGeometry x="30" y="450" width="120" height="60" as="geometry" />
        </mxCell>
        <mxCell id="62893188c0fa7362-14" value="Yes" style="rounded=0;html=1;labelBackgroundColor=none;startArrow=none;startFill=0;startSize=5;endArrow=none;endFill=0;endSize=5;jettySize=auto;orthogonalLoop=1;strokeWidth=1;fontFamily=Verdana;fontSize=12" parent="1" source="62893188c0fa7362-2" target="dLoJ1G1eTuvPHz6MfpkU-2" edge="1">
          <mxGeometry x="-0.2" y="-14" relative="1" as="geometry">
            <mxPoint as="offset" />
            <mxPoint x="283" y="310" as="targetPoint" />
          </mxGeometry>
        </mxCell>
        <mxCell id="62893188c0fa7362-15" value="No" style="rounded=0;html=1;labelBackgroundColor=none;startArrow=none;startFill=0;startSize=5;endArrow=none;endFill=0;endSize=5;jettySize=auto;orthogonalLoop=1;strokeWidth=1;fontFamily=Verdana;fontSize=12" parent="1" source="62893188c0fa7362-2" target="dLoJ1G1eTuvPHz6MfpkU-3" edge="1">
          <mxGeometry x="-0.2" y="14" relative="1" as="geometry">
            <mxPoint as="offset" />
            <mxPoint x="462.0689655172414" y="320" as="targetPoint" />
          </mxGeometry>
        </mxCell>
        <mxCell id="62893188c0fa7362-16" value="Yes" style="rounded=0;html=1;labelBackgroundColor=none;startArrow=none;startFill=0;startSize=5;endArrow=none;endFill=0;endSize=5;jettySize=auto;orthogonalLoop=1;strokeWidth=1;fontFamily=Verdana;fontSize=12" parent="1" source="62893188c0fa7362-3" target="62893188c0fa7362-10" edge="1">
          <mxGeometry x="-0.2614" y="-13" relative="1" as="geometry">
            <mxPoint as="offset" />
          </mxGeometry>
        </mxCell>
        <mxCell id="62893188c0fa7362-17" value="No" style="rounded=0;html=1;labelBackgroundColor=none;startArrow=none;startFill=0;startSize=5;endArrow=none;endFill=0;endSize=5;jettySize=auto;orthogonalLoop=1;strokeWidth=1;fontFamily=Verdana;fontSize=12" parent="1" source="62893188c0fa7362-3" target="dLoJ1G1eTuvPHz6MfpkU-4" edge="1">
          <mxGeometry x="-0.1294" y="17" relative="1" as="geometry">
            <mxPoint as="offset" />
            <mxPoint x="947.5" y="320" as="targetPoint" />
          </mxGeometry>
        </mxCell>
        <mxCell id="62893188c0fa7362-18" value="Yes" style="rounded=0;html=1;labelBackgroundColor=none;startArrow=none;startFill=0;startSize=5;endArrow=none;endFill=0;endSize=5;jettySize=auto;orthogonalLoop=1;strokeWidth=1;fontFamily=Verdana;fontSize=12" parent="1" source="dLoJ1G1eTuvPHz6MfpkU-2" target="62893188c0fa7362-12" edge="1">
          <mxGeometry x="-0.2168" y="-14" relative="1" as="geometry">
            <mxPoint as="offset" />
            <mxPoint x="194.75" y="450" as="sourcePoint" />
          </mxGeometry>
        </mxCell>
        <mxCell id="dLoJ1G1eTuvPHz6MfpkU-2" value="&lt;ul&gt;&lt;li&gt;calculate CC tables&lt;/li&gt;&lt;li&gt;termination criterion not met&lt;/li&gt;&lt;li&gt;calculate best feature and feature value to split dataset at&lt;/li&gt;&lt;li&gt;left: dataset.feature is &amp;lt;= value&lt;/li&gt;&lt;li&gt;right: dataset.feature &amp;gt; value&lt;br&gt;&lt;/li&gt;&lt;/ul&gt;" style="whiteSpace=wrap;html=1;rounded=1;shadow=1;labelBackgroundColor=none;strokeWidth=1;fontFamily=Verdana;fontSize=12;align=left;" vertex="1" parent="1">
          <mxGeometry x="10" y="310" width="410" height="90" as="geometry" />
        </mxCell>
        <mxCell id="dLoJ1G1eTuvPHz6MfpkU-3" value="&lt;ul&gt;&lt;li&gt;calculate CC tables&lt;/li&gt;&lt;li&gt;termination criterion met&lt;/li&gt;&lt;li&gt;node is a leaf&lt;/li&gt;&lt;li&gt;return predicted class&lt;br&gt;&lt;/li&gt;&lt;/ul&gt;" style="whiteSpace=wrap;html=1;rounded=0;shadow=1;labelBackgroundColor=none;strokeWidth=2;fontFamily=Verdana;fontSize=12;align=left;" vertex="1" parent="1">
          <mxGeometry x="430" y="320" width="210" height="70" as="geometry" />
        </mxCell>
        <mxCell id="dLoJ1G1eTuvPHz6MfpkU-4" value="&lt;ul&gt;&lt;li&gt;calculate CC tables&lt;/li&gt;&lt;li&gt;termination criterion met&lt;/li&gt;&lt;li&gt;node is a leaf&lt;/li&gt;&lt;li&gt;return predicted class&lt;br&gt;&lt;/li&gt;&lt;/ul&gt;" style="whiteSpace=wrap;html=1;rounded=0;shadow=1;labelBackgroundColor=none;strokeWidth=2;fontFamily=Verdana;fontSize=12;align=left;" vertex="1" parent="1">
          <mxGeometry x="880" y="320" width="210" height="70" as="geometry" />
        </mxCell>
        <mxCell id="dLoJ1G1eTuvPHz6MfpkU-5" value="Yes" style="rounded=0;html=1;labelBackgroundColor=none;startArrow=none;startFill=0;startSize=5;endArrow=none;endFill=0;endSize=5;jettySize=auto;orthogonalLoop=1;strokeWidth=1;fontFamily=Verdana;fontSize=12" edge="1" parent="1">
          <mxGeometry x="-0.2168" y="-14" relative="1" as="geometry">
            <mxPoint as="offset" />
            <mxPoint x="80" y="510" as="sourcePoint" />
            <mxPoint x="30" y="560" as="targetPoint" />
          </mxGeometry>
        </mxCell>
        <mxCell id="dLoJ1G1eTuvPHz6MfpkU-6" value="No" style="rounded=0;html=1;labelBackgroundColor=none;startArrow=none;startFill=0;startSize=5;endArrow=none;endFill=0;endSize=5;jettySize=auto;orthogonalLoop=1;strokeWidth=1;fontFamily=Verdana;fontSize=12" edge="1" parent="1">
          <mxGeometry x="-0.2" y="14" relative="1" as="geometry">
            <mxPoint as="offset" />
            <mxPoint x="110" y="510" as="sourcePoint" />
            <mxPoint x="160" y="560" as="targetPoint" />
          </mxGeometry>
        </mxCell>
      </root>
    </mxGraphModel>
  </diagram>
</mxfile>
